<svg width="148" height="162" viewBox="0 0 148 162" fill="none" xmlns="http://www.w3.org/2000/svg">
<path d="M43.8927 47.3127L119.264 13.6118C120.768 12.9393 122.295 12.5764 123.792 12.4811C121.199 6.0275 113.531 2.2362 106.373 5.43666L31.0015 39.1375C21.6457 43.3207 20.5723 56.1741 29.1046 61.8511L37.6732 67.5286C30.9259 61.6075 35.0592 51.2623 43.8927 47.3127V47.3127Z" fill="#E3CCC7"/>
<path d="M98.8988 109.984C95.543 109.984 92.2124 109.003 89.3177 107.077L66.2527 91.7302C64.2769 90.4155 63.7411 87.7481 65.0556 85.7723C66.3702 83.7968 69.0379 83.2605 71.0134 84.5752L94.0784 99.9217C96.5844 101.589 99.6063 101.861 102.369 100.667C105.132 99.4729 107.005 97.0867 107.508 94.1198L120.281 18.7752C120.828 15.5509 119.611 12.4302 117.026 10.4273C114.44 8.42425 111.113 8.0257 108.127 9.36037L32.7558 43.0612C29.8127 44.3772 27.8956 47.0805 27.6274 50.2925C27.3591 53.5048 28.8012 56.4887 31.4851 58.2743L42.0084 65.276C43.9842 66.5907 44.5201 69.2581 43.2056 71.2339C41.8909 73.2092 39.2233 73.7455 37.2477 72.431L26.7244 65.4294C21.3943 61.883 18.5303 55.9569 19.0632 49.5775C19.5958 43.1978 23.4032 37.8287 29.2479 35.2156L104.619 1.51478C110.461 -1.09676 117.231 -0.285258 122.289 3.63324C127.347 7.55131 129.824 13.9039 128.755 20.2115L115.981 95.5561C114.997 101.361 111.183 106.22 105.778 108.556C103.565 109.512 101.226 109.984 98.8988 109.984Z" fill="#FA1E0E"/>
<path d="M52.0895 109.998C49.7163 109.998 47.7925 108.074 47.7925 105.701V85.8591C47.7925 79.7162 50.2953 73.7138 54.6592 69.3905L95.0439 29.3833C96.7296 27.7129 99.4505 27.726 101.121 29.4119C102.791 31.0979 102.778 33.8186 101.092 35.4886L60.7075 75.4958C57.9615 78.2163 56.3866 81.9936 56.3866 85.8591V105.701C56.3866 108.074 54.4626 109.998 52.0895 109.998V109.998Z" fill="#FFBE0F"/>
<path d="M13.87 160L9.25 151.84H7.27V160H3.07V139.06H10.93C12.55 139.06 13.93 139.35 15.07 139.93C16.21 140.49 17.06 141.26 17.62 142.24C18.2 143.2 18.49 144.28 18.49 145.48C18.49 146.86 18.09 148.11 17.29 149.23C16.49 150.33 15.3 151.09 13.72 151.51L18.73 160H13.87ZM7.27 148.69H10.78C11.92 148.69 12.77 148.42 13.33 147.88C13.89 147.32 14.17 146.55 14.17 145.57C14.17 144.61 13.89 143.87 13.33 143.35C12.77 142.81 11.92 142.54 10.78 142.54H7.27V148.69ZM38.0388 151.33C38.0388 151.93 37.9988 152.47 37.9188 152.95H25.7687C25.8687 154.15 26.2887 155.09 27.0287 155.77C27.7687 156.45 28.6787 156.79 29.7588 156.79C31.3187 156.79 32.4287 156.12 33.0888 154.78H37.6188C37.1387 156.38 36.2187 157.7 34.8587 158.74C33.4987 159.76 31.8287 160.27 29.8487 160.27C28.2487 160.27 26.8087 159.92 25.5287 159.22C24.2687 158.5 23.2787 157.49 22.5587 156.19C21.8587 154.89 21.5087 153.39 21.5087 151.69C21.5087 149.97 21.8587 148.46 22.5587 147.16C23.2587 145.86 24.2387 144.86 25.4987 144.16C26.7587 143.46 28.2087 143.11 29.8487 143.11C31.4287 143.11 32.8387 143.45 34.0787 144.13C35.3388 144.81 36.3088 145.78 36.9887 147.04C37.6888 148.28 38.0388 149.71 38.0388 151.33ZM33.6887 150.13C33.6687 149.05 33.2787 148.19 32.5187 147.55C31.7587 146.89 30.8287 146.56 29.7287 146.56C28.6887 146.56 27.8087 146.88 27.0887 147.52C26.3887 148.14 25.9587 149.01 25.7987 150.13H33.6887ZM40.3244 151.63C40.3244 149.95 40.6544 148.46 41.3144 147.16C41.9944 145.86 42.9144 144.86 44.0744 144.16C45.2344 143.46 46.5244 143.11 47.9444 143.11C49.0244 143.11 50.0544 143.35 51.0344 143.83C52.0144 144.29 52.7944 144.91 53.3744 145.69V137.8H57.6344V160H53.3744V157.54C52.8544 158.36 52.1244 159.02 51.1844 159.52C50.2444 160.02 49.1544 160.27 47.9144 160.27C46.5144 160.27 45.2344 159.91 44.0744 159.19C42.9144 158.47 41.9944 157.46 41.3144 156.16C40.6544 154.84 40.3244 153.33 40.3244 151.63ZM53.4044 151.69C53.4044 150.67 53.2044 149.8 52.8044 149.08C52.4044 148.34 51.8644 147.78 51.1844 147.4C50.5044 147 49.7744 146.8 48.9944 146.8C48.2144 146.8 47.4944 146.99 46.8344 147.37C46.1744 147.75 45.6344 148.31 45.2144 149.05C44.8144 149.77 44.6144 150.63 44.6144 151.63C44.6144 152.63 44.8144 153.51 45.2144 154.27C45.6344 155.01 46.1744 155.58 46.8344 155.98C47.5144 156.38 48.2344 156.58 48.9944 156.58C49.7744 156.58 50.5044 156.39 51.1844 156.01C51.8644 155.61 52.4044 155.05 52.8044 154.33C53.2044 153.59 53.4044 152.71 53.4044 151.69ZM68.4648 149.5C68.4648 147.44 68.9248 145.6 69.8448 143.98C70.7848 142.34 72.0548 141.07 73.6548 140.17C75.2748 139.25 77.0848 138.79 79.0848 138.79C81.4248 138.79 83.4748 139.39 85.2348 140.59C86.9948 141.79 88.2248 143.45 88.9248 145.57H84.0948C83.6148 144.57 82.9348 143.82 82.0548 143.32C81.1948 142.82 80.1948 142.57 79.0548 142.57C77.8348 142.57 76.7448 142.86 75.7848 143.44C74.8448 144 74.1048 144.8 73.5648 145.84C73.0448 146.88 72.7848 148.1 72.7848 149.5C72.7848 150.88 73.0448 152.1 73.5648 153.16C74.1048 154.2 74.8448 155.01 75.7848 155.59C76.7448 156.15 77.8348 156.43 79.0548 156.43C80.1948 156.43 81.1948 156.18 82.0548 155.68C82.9348 155.16 83.6148 154.4 84.0948 153.4H88.9248C88.2248 155.54 86.9948 157.21 85.2348 158.41C83.4948 159.59 81.4448 160.18 79.0848 160.18C77.0848 160.18 75.2748 159.73 73.6548 158.83C72.0548 157.91 70.7848 156.64 69.8448 155.02C68.9248 153.4 68.4648 151.56 68.4648 149.5ZM102.172 143.14C103.432 143.14 104.552 143.42 105.532 143.98C106.512 144.52 107.272 145.33 107.812 146.41C108.372 147.47 108.652 148.75 108.652 150.25V160H104.452V150.82C104.452 149.5 104.122 148.49 103.462 147.79C102.802 147.07 101.902 146.71 100.762 146.71C99.6022 146.71 98.6822 147.07 98.0022 147.79C97.3422 148.49 97.0122 149.5 97.0122 150.82V160H92.8122V137.8H97.0122V145.45C97.5522 144.73 98.2722 144.17 99.1722 143.77C100.072 143.35 101.072 143.14 102.172 143.14ZM111.866 151.63C111.866 149.95 112.196 148.46 112.856 147.16C113.536 145.86 114.446 144.86 115.586 144.16C116.746 143.46 118.036 143.11 119.456 143.11C120.696 143.11 121.776 143.36 122.696 143.86C123.636 144.36 124.386 144.99 124.946 145.75V143.38H129.176V160H124.946V157.57C124.406 158.35 123.656 159 122.696 159.52C121.756 160.02 120.666 160.27 119.426 160.27C118.026 160.27 116.746 159.91 115.586 159.19C114.446 158.47 113.536 157.46 112.856 156.16C112.196 154.84 111.866 153.33 111.866 151.63ZM124.946 151.69C124.946 150.67 124.746 149.8 124.346 149.08C123.946 148.34 123.406 147.78 122.726 147.4C122.046 147 121.316 146.8 120.536 146.8C119.756 146.8 119.036 146.99 118.376 147.37C117.716 147.75 117.176 148.31 116.756 149.05C116.356 149.77 116.156 150.63 116.156 151.63C116.156 152.63 116.356 153.51 116.756 154.27C117.176 155.01 117.716 155.58 118.376 155.98C119.056 156.38 119.776 156.58 120.536 156.58C121.316 156.58 122.046 156.39 122.726 156.01C123.406 155.61 123.946 155.05 124.346 154.33C124.746 153.59 124.946 152.71 124.946 151.69ZM138.468 146.83V154.87C138.468 155.43 138.598 155.84 138.858 156.1C139.138 156.34 139.598 156.46 140.238 156.46H142.188V160H139.548C136.008 160 134.238 158.28 134.238 154.84V146.83H132.258V143.38H134.238V139.27H138.468V143.38H142.188V146.83H138.468Z" fill="#E3CCC7"/>
</svg>
